<svg width="16" height="16" viewBox="0 0 16 16" fill="none" xmlns="http://www.w3.org/2000/svg">
    <g transform="translate(4.5 4)">
        <path
            d="M6.73349 7.25973C6.56615 7.41101 6.3392 7.49599 6.10256 7.49599C5.86591 7.49599 5.63896 7.41101 5.47162 7.25973L3.50037 5.22282L1.52912 7.25906C1.44651 7.33497 1.34809 7.39534 1.23955 7.43669C1.131 7.47805 1.01447 7.49956 0.896682 7.49999C0.778892 7.50043 0.662173 7.47977 0.553257 7.43922C0.444342 7.39867 0.345384 7.33902 0.262094 7.26372C0.178803 7.18842 0.112828 7.09896 0.0679728 7.00049C0.023118 6.90203 0.000271303 6.79651 0.000750932 6.69002C0.00123056 6.58353 0.0250268 6.47818 0.0707672 6.38005C0.116508 6.28191 0.183287 6.19294 0.267253 6.11825L2.31807 4.00067L0.266509 1.88175C0.182543 1.80706 0.115764 1.71809 0.0700237 1.61995C0.0242833 1.52182 0.000487026 1.41647 7.39792e-06 1.30998C-0.00047223 1.20349 0.0223744 1.09797 0.0672293 0.999506C0.112084 0.901039 0.17806 0.811576 0.26135 0.736276C0.344641 0.660977 0.443598 0.601331 0.552514 0.560779C0.66143 0.520228 0.778149 0.499573 0.895939 0.500007C1.01373 0.50044 1.13026 0.521954 1.2388 0.563306C1.34735 0.604658 1.44577 0.66503 1.52838 0.740941L3.50037 2.77852L5.47162 0.740941C5.55423 0.66503 5.65265 0.604658 5.7612 0.563306C5.86974 0.521954 5.98627 0.50044 6.10406 0.500007C6.22185 0.499573 6.33857 0.520228 6.44749 0.560779C6.5564 0.601331 6.65536 0.660977 6.73865 0.736276C6.82194 0.811576 6.88792 0.901039 6.93277 0.999506C6.97763 1.09797 7.00047 1.20349 6.99999 1.30998C6.99951 1.41647 6.97572 1.52182 6.92998 1.61995C6.88424 1.71809 6.81746 1.80706 6.73349 1.88175L4.68268 4.00067L6.73349 6.11825C6.81645 6.19317 6.88227 6.28214 6.92717 6.38008C6.97208 6.47801 6.99519 6.58298 6.99519 6.68899C6.99519 6.79501 6.97208 6.89998 6.92717 6.99791C6.88227 7.09584 6.81645 7.18481 6.73349 7.25973Z"
            fill="#C60707" />
    </g>
</svg>